<svg xmlns="http://www.w3.org/2000/svg" xmlns:xlink="http://www.w3.org/1999/xlink" width="308" height="77" viewBox="0 0 308 77">
    <defs>
        <path id="prefix__a" d="M0.226 0.882L90 0.882 90 75.973 0.226 75.973z"/>
        <path id="prefix__c" d="M0.226 0.911L86.725 0.911 86.725 49 0.226 49z"/>
        <path id="prefix__e" d="M0 0.865L25.857 0.865 25.857 41.216 0 41.216z"/>
        <path id="prefix__g" d="M0 76.118L306 76.118 306 1 0 1z"/>
    </defs>
    <g fill="none" fill-rule="evenodd" transform="translate(1)">
        <path fill="#009D97" d="M216.226 76.095c19.048-13.75 42.546-29.14 48.762-35.257 4.59-4.515 6.413-7.417 7.502-12.496 2.604-12.159-5.14-24.128-17.299-26.733-12.159-2.606-24.127 5.14-26.733 17.298l-12.232 57.188z"/>
        <g transform="translate(216 .118)">
            <mask id="prefix__b" fill="#fff">
                <use xlink:href="#prefix__a"/>
            </mask>
            <path fill="#EC008C" d="M79.09 50.676C71.737 56.303 36.34 65.392.226 75.973 29.833 27.357 36.777 12.988 45.372 6.54c12.27-9.203 29.615-6.978 38.925 5.208 9.314 12.19 6.97 29.606-5.207 38.928" mask="url(#prefix__b)"/>
        </g>
        <path fill="#006575" d="M216.226 76.092l.007-.002c19.048-13.75 42.54-29.135 48.755-35.252 4.59-4.515 6.413-7.416 7.502-12.496 1.946-9.086-1.887-18.066-9.024-23.112-.71.442-1.412.916-2.094 1.428-8.595 6.449-15.539 20.817-45.145 69.433z"/>
        <g transform="translate(216 27.118)">
            <mask id="prefix__d" fill="#fff">
                <use xlink:href="#prefix__c"/>
            </mask>
            <path fill="#3F81CC" d="M.226 48.977C18.847 32.163 40.174 11.07 47.953 5.948c5.742-3.78 9.18-5.037 14.728-5.037 13.28 0 24.044 10.765 24.044 24.045C86.725 38.236 75.96 49 62.681 49L.226 48.977z" mask="url(#prefix__d)"/>
        </g>
        <path fill="#254D78" d="M216.233 76.09c36.11-10.58 71.506-19.67 78.857-25.296 2.518-1.928 4.615-4.203 6.276-6.705-3.293-9.355-12.205-16.06-22.685-16.06-5.548 0-8.986 1.256-14.728 5.037-7.778 5.121-29.102 26.211-47.72 43.024"/>
        <path fill="#4D4D4D" d="M263.953 33.066c-7.777 5.122-29.104 26.213-47.723 43.026 19.047-13.75 42.543-29.138 48.758-35.255 4.444-4.372 6.295-7.23 7.397-12.02-2.61.747-5.141 2.083-8.432 4.25"/>
        <path fill="#3F81CC" d="M122.84 32.432h9.714l-.965 4.43c1.324-1.628 2.982-2.87 4.97-3.723 1.988-.85 4.062-1.277 6.22-1.277 1.25 0 2.29.142 3.125.427.832.284 1.504.66 2.015 1.136.513.473.89 1.023 1.137 1.648.246.623.407 1.276.482 1.958 1.326-1.628 2.963-2.895 4.914-3.806 1.95-.91 3.985-1.363 6.106-1.363 1.364 0 2.47.19 3.324.57.85.378 1.533.869 2.045 1.477.512.606.86 1.305 1.052 2.1.189.796.28 1.61.28 2.443 0 .34-.026.852-.083 1.533-.058.682-.197 1.572-.425 2.668l-4.204 19.656h-10.791l3.577-16.814c.114-.605.17-1.156.17-1.646 0-.873-.182-1.517-.54-1.933-.361-.417-.786-.626-1.278-.626-.378 0-.805.115-1.28.34-.473.229-.945.532-1.418.91-.474.38-.928.825-1.363 1.336-.436.512-.823 1.072-1.165 1.675l-3.521 16.758h-10.792l3.577-16.814c.114-.605.17-1.156.17-1.646 0-.873-.18-1.517-.54-1.933-.36-.417-.804-.626-1.334-.626-.38 0-.804.115-1.278.34-.474.229-.946.532-1.421.91-.473.38-.927.834-1.361 1.364-.436.53-.805 1.078-1.108 1.647l-3.58 16.758H116.48l6.362-29.877zM174.135 32.432L184.927 32.432 178.566 62.309 167.772 62.309zM190.379 32.432h9.713l-.965 4.43c1.325-1.628 2.982-2.87 4.97-3.723 1.989-.85 4.212-1.277 6.674-1.277 1.365 0 2.49.19 3.38.57.89.378 1.592.888 2.103 1.533.509.644.86 1.37 1.05 2.186.189.815.283 1.639.283 2.47 0 .72-.046 1.42-.141 2.103-.094.68-.2 1.326-.311 1.929l-4.148 19.656h-10.792l3.579-16.814c.114-.568.168-1.061.168-1.477 0-.947-.216-1.638-.652-2.074-.436-.434-.957-.654-1.561-.654-.76 0-1.657.399-2.7 1.196-1.041.793-1.921 1.817-2.64 3.065l-3.58 16.758h-10.791l6.36-29.877z"/>
        <path fill="#4D4D4D" d="M43.807 53.788c.908 0 1.761-.254 2.557-.768.793-.51 1.664-1.277 2.611-2.3l1.137-5.34c-.19-1.323-.653-2.393-1.392-3.21-.738-.811-1.618-1.22-2.642-1.22-.794 0-1.57.228-2.329.68-.756.457-1.44 1.053-2.044 1.793-.606.738-1.089 1.598-1.447 2.583-.362.984-.54 2.007-.54 3.067 0 1.44.348 2.586 1.05 3.438.701.85 1.713 1.277 3.04 1.277m-4.887 9.089c-1.665 0-3.153-.294-4.459-.88-1.307-.587-2.414-1.41-3.322-2.47-.91-1.063-1.602-2.331-2.074-3.807-.473-1.478-.71-3.106-.71-4.887 0-2.574.435-5.006 1.307-7.297.871-2.292 2.044-4.31 3.52-6.05 1.478-1.742 3.19-3.116 5.142-4.118 1.95-1.004 4.004-1.506 6.163-1.506 1.818 0 3.38.436 4.686 1.307 1.306.87 2.188 2.1 2.641 3.693l.91-4.204h10.85l-3.808 17.72c-.112.57-.169 1.024-.169 1.365 0 .947.511 1.439 1.534 1.478L59.2 62.309c-1.894.38-3.428.568-4.6.568-1.705 0-3.05-.323-4.035-.966-.984-.644-1.475-1.778-1.475-3.408 0-.378.018-.662.056-.851-1.364 1.818-2.944 3.145-4.742 3.977-1.8.832-3.627 1.248-5.483 1.248"/>
        <g transform="translate(0 21.118)">
            <mask id="prefix__f" fill="#fff">
                <use xlink:href="#prefix__e"/>
            </mask>
            <path fill="#4D4D4D" d="M6.897.865h11.076l-6.532 30.668h14.415l-2.045 9.657H7.588s-4.548.566-6.736-3.584C-.617 34.822.26 32.07.26 32.07L6.897.865z" mask="url(#prefix__f)"/>
        </g>
        <path fill="#4D4D4D" d="M75.503 62.877c-2.5 0-4.856-.427-7.071-1.278-2.217-.851-3.987-2.092-5.311-3.721l4.997-6.476c1.515 1.249 3.02 2.217 4.517 2.897 1.494.682 2.905 1.022 4.23 1.022.758 0 1.288-.151 1.592-.453.303-.303.455-.72.455-1.249 0-.418-.23-.815-.682-1.195-.455-.378-1.288-.776-2.5-1.193-1.628-.529-3.011-1.06-4.146-1.589-1.136-.531-2.074-1.08-2.812-1.649-.738-.567-1.278-1.191-1.62-1.873-.34-.682-.511-1.458-.511-2.331 0-1.666.37-3.228 1.109-4.683.738-1.458 1.75-2.731 3.038-3.809 1.287-1.078 2.782-1.929 4.487-2.556 1.705-.624 3.522-.935 5.455-.935 2.118 0 4.049.284 5.794.851 1.74.568 3.425 1.723 5.053 3.466l-5.395 6.475c-1.554-1.173-2.86-2.025-3.92-2.556-1.06-.53-2.082-.795-3.067-.795-.644 0-1.155.161-1.532.483-.381.321-.57.764-.57 1.334 0 .493.255.9.768 1.22.51.322 1.429.692 2.753 1.108 3.296.985 5.634 2.065 7.015 3.238 1.383 1.175 2.075 2.69 2.075 4.546 0 1.741-.34 3.332-1.022 4.77-.683 1.44-1.648 2.67-2.897 3.694-1.25 1.021-2.747 1.817-4.487 2.385-1.743.568-3.675.852-5.795.852M101.519 62.934c-1.023 0-1.969-.103-2.841-.312-.872-.21-1.638-.56-2.301-1.051-.663-.493-1.174-1.116-1.532-1.875-.361-.757-.54-1.702-.54-2.84 0-.415.018-.833.055-1.251.038-.415.115-.871.228-1.363l2.896-13.69H94.02l1.762-8.12h3.464l1.988-9.374h10.792l-1.987 9.374h5.452l-1.702 8.12h-5.511l-2.103 9.885c-.038.189-.066.368-.084.54-.02.168-.029.33-.029.482 0 1.1.568 1.647 1.705 1.647.453 0 1.03-.086 1.732-.255.702-.171 1.43-.406 2.187-.71v8.52c-1.667.644-3.38 1.185-5.141 1.619-1.76.435-3.436.654-5.026.654M191.867 17.739c-1.845.49-4.133 1.748-7.089 3.336l-5.744-.887-1.29 1.496 2.813 1.643c-1.556.833-2.91 1.563-2.91 1.563-1.709-.528-4.799-1.851-4.799-1.851l-2.48 1.246s2.902 2.18 4.501 3.115c0 0 2.722.905 8.667-1.43l-.188 3.79 1.865-.654 2.237-4.938c2.305-1.204 4.94-2.813 7.933-4.973 1.701-1.23.228-2.45-3.516-1.456"/>
        <mask id="prefix__h" fill="#fff">
            <use xlink:href="#prefix__g"/>
        </mask>
        <path fill="#FFF" d="M234.926 62.308L244.247 62.308 244.247 21.952 234.926 21.952zM268.257 54.294c1.515 0 2.842-.246 3.98-.738l-6.482-7.161h8.754l2.501 2.784c.606-1.06 1.06-2.197 1.364-3.41.303-1.212.455-2.444.455-3.695 0-1.553-.227-3.06-.68-4.518-.456-1.46-1.139-2.747-2.048-3.865-.909-1.117-2.019-2.02-3.325-2.7-1.307-.683-2.814-1.023-4.519-1.023-1.782 0-3.325.35-4.633 1.05-1.306.703-2.407 1.63-3.297 2.785-.89 1.158-1.553 2.465-1.989 3.924-.435 1.459-.653 2.946-.653 4.46 0 1.555.227 3.06.681 4.52.455 1.459 1.127 2.748 2.018 3.864.891 1.119 2 2.019 3.326 2.7 1.326.684 2.841 1.023 4.547 1.023zm9.775 5.742c-1.438.794-2.984 1.42-4.63 1.874-1.65.456-3.383.684-5.202.684-2.994 0-5.722-.578-8.184-1.735-2.464-1.154-4.568-2.69-6.31-4.604-1.743-1.913-3.097-4.1-4.064-6.565-.966-2.462-1.449-5.002-1.449-7.616 0-2.651.502-5.21 1.505-7.673 1.004-2.464 2.407-4.642 4.207-6.538 1.8-1.893 3.931-3.4 6.394-4.517 2.463-1.117 5.153-1.677 8.071-1.677 2.992 0 5.722.596 8.185 1.79s4.566 2.756 6.31 4.69c1.743 1.931 3.087 4.13 4.035 6.593.947 2.464 1.421 4.965 1.421 7.503 0 2.578-.455 5.04-1.364 7.389-.909 2.35-2.198 4.453-3.865 6.309l5.798 6.367h-8.754l-2.104-2.275z" mask="url(#prefix__h)"/>
    </g>
</svg>
