<svg width="23" height="23" viewBox="0 0 23 23" fill="none" xmlns="http://www.w3.org/2000/svg">
<path fill-rule="evenodd" clip-rule="evenodd" d="M12.7449 11.5065L22.7421 21.509C22.9017 21.6754 22.9897 21.8976 22.9873 22.1281C22.9849 22.3586 22.8924 22.579 22.7294 22.7419C22.5665 22.9049 22.3462 22.9976 22.1159 23C21.8855 23.0023 21.6634 22.9142 21.4972 22.7547L11.5 12.7514L1.50242 22.7547C1.33619 22.9142 1.11407 23.0023 0.883696 23C0.653326 22.9976 0.433064 22.9049 0.270159 22.7419C0.107255 22.579 0.0146864 22.3586 0.0123117 22.1281C0.00993702 21.8976 0.0979457 21.6754 0.257457 21.509L10.2551 11.5061L0.25784 1.5036C0.176094 1.42181 0.111251 1.32472 0.0670109 1.21786C0.0227707 1.11099 9.2e-10 0.996459 0 0.880789C-9.2e-10 0.765123 0.0227707 0.650588 0.0670109 0.543726C0.111251 0.436864 0.176094 0.339766 0.25784 0.257977C0.339584 0.176188 0.436631 0.11131 0.543436 0.0670459C0.650242 0.022782 0.764714 -9.2e-10 0.88032 0C0.995929 9.2e-10 1.1104 0.022782 1.21721 0.0670459C1.32401 0.11131 1.42105 0.176188 1.5028 0.257977L11.5 10.2609L21.4972 0.25836C21.579 0.176571 21.6759 0.111693 21.7827 0.0674294C21.8896 0.0231656 22.0041 0.000382825 22.1197 0.000382823C22.2353 0.00038282 22.3497 0.0231656 22.4566 0.0674294C22.5634 0.111693 22.6604 0.176571 22.7421 0.25836C22.8239 0.340149 22.8888 0.437247 22.9329 0.544109C22.9772 0.650971 23 0.765505 23 0.881172C23 0.996836 22.9772 1.11138 22.9329 1.21823C22.8888 1.3251 22.8239 1.4222 22.7421 1.50399L12.7449 11.5061V11.5065Z" fill="#808080"/>
</svg>
