<svg width="23" height="23" viewBox="0 0 23 23" fill="none" xmlns="http://www.w3.org/2000/svg">
<path fill-rule="evenodd" clip-rule="evenodd" d="M0 0H23V23H0V0Z" fill="#4D4D4D"/>
<mask id="mask0" mask-type="alpha" maskUnits="userSpaceOnUse" x="0" y="0" width="23" height="23">
<path d="M11.5 0.676514H0.676514V22.3236H11.5H22.3236V0.676514H11.5Z" fill="white"/>
</mask>
<g mask="url(#mask0)">
<path fill-rule="evenodd" clip-rule="evenodd" d="M21.1286 0.676514H1.87116C1.2116 0.676514 0.676514 1.21093 0.676514 1.87048V21.1286C0.676514 21.7892 1.2116 22.3222 1.87116 22.3222H12.2391V13.9404H9.41651V10.6731H12.2391V8.26381C12.2391 5.46762 13.9472 3.94488 16.4417 3.94488C17.6356 3.94488 18.6632 4.03384 18.9629 4.07341V6.99509L17.2311 6.99576C15.8755 6.99576 15.6133 7.64044 15.6133 8.58648V10.6724H18.8479L18.4264 13.9397H15.613V22.3236H21.1289C21.7895 22.3236 22.3229 21.7892 22.3229 21.1286V1.87048C22.3236 1.21093 21.7892 0.676514 21.1289 0.676514" fill="white"/>
</g>
</svg>
