<?xml version="1.0" encoding="utf-8"?>
<!-- Generator: Adobe Illustrator 24.1.1, SVG Export Plug-In . SVG Version: 6.00 Build 0)  -->
<svg version="1.1" id="Capa_1" xmlns="http://www.w3.org/2000/svg" xmlns:xlink="http://www.w3.org/1999/xlink" x="0px" y="0px"
	 viewBox="0 0 65.4 65.4" style="enable-background:new 0 0 65.4 65.4;" xml:space="preserve">
<style type="text/css">
	.st0{fill:#DF248D;}
</style>
<g>
	<path class="st0" d="M32.7,0C14.6,0,0,14.6,0,32.7c0,18.1,14.6,32.7,32.7,32.7c18.1,0,32.7-14.6,32.7-32.7C65.4,14.6,50.8,0,32.7,0
		z M15.3,48.3c-1,0-1.8-0.8-1.8-1.8c0-0.7,0.4-1.2,0.9-1.5V28.7h1.8V45c0.5,0.3,0.9,0.9,0.9,1.5C17.1,47.5,16.3,48.3,15.3,48.3z
		 M48,41.9c0,2.1-6.8,5.3-15.3,5.3c-8.4,0-15.3-3.2-15.3-5.3V31.4l15.3,5.5L48,31.4V41.9z M32.7,34.9l-15.6-5.6l14.2-2.2
		c0.3,0.4,0.8,0.7,1.4,0.7c1,0,1.9-0.8,1.9-1.9c0-1-0.8-1.9-1.9-1.9c-0.8,0-1.5,0.5-1.7,1.2l-17.4,2.7L7.8,26l24.9-8.9L57.6,26
		L32.7,34.9z"/>
</g>
</svg>
