<svg width="25" height="25" viewBox="0 0 25 25" fill="none" xmlns="http://www.w3.org/2000/svg">
<path fill-rule="evenodd" clip-rule="evenodd" d="M2.44674 10.3747L7.18136 14.9243C7.36418 15.1009 7.44765 15.3541 7.40473 15.6023L6.28688 22.0273L12.1394 18.9936C12.2507 18.9358 12.3747 18.9056 12.5006 18.9056C12.6265 18.9056 12.7504 18.9358 12.8619 18.9936L18.714 22.0273L17.5961 15.6023C17.575 15.4799 17.5843 15.3543 17.6232 15.2362C17.6621 15.1181 17.7294 15.0111 17.8194 14.9243L22.5541 10.3747L16.0116 9.43742C15.8869 9.41952 15.7684 9.37202 15.6664 9.29903C15.5644 9.22605 15.4819 9.12968 15.426 9.01831L12.5006 3.173L9.57387 9.01863C9.51807 9.12992 9.43581 9.22621 9.33395 9.29911C9.2321 9.3721 9.11379 9.4196 8.98928 9.43742L2.44674 10.3747ZM5.25521 24.1936C5.14205 24.1936 5.03025 24.1692 4.92763 24.1222C4.82502 24.0752 4.73405 24.0066 4.66109 23.9213C4.58814 23.8361 4.53495 23.7361 4.50525 23.6284C4.47555 23.5207 4.47005 23.408 4.48915 23.298L5.80399 15.7406L0.234713 10.3886C0.130877 10.2889 0.057426 10.1624 0.0226641 10.0236C-0.0120979 9.88484 -0.00678456 9.7392 0.0380033 9.60323C0.0827912 9.46726 0.165268 9.34637 0.276108 9.25419C0.386949 9.16202 0.521733 9.10226 0.665224 9.08161L8.36137 7.9792L11.8038 1.1034C11.7456 0.986653 11.7185 0.857218 11.7251 0.727298C11.7317 0.597377 11.7718 0.471258 11.8415 0.360841C11.9113 0.250424 12.0084 0.159352 12.1238 0.096217C12.2391 0.0330823 12.3689 -3.15205e-05 12.5009 2.25139e-08C12.6328 3.15655e-05 12.7626 0.0332076 12.8779 0.0963976C12.9932 0.159587 13.0903 0.250707 13.16 0.361157C13.2297 0.471607 13.2697 0.597745 13.2762 0.727669C13.2828 0.857589 13.2556 0.987016 13.1973 1.10373L16.6388 7.9792L24.3352 9.08161C24.4786 9.10242 24.6133 9.16226 24.724 9.25444C24.8347 9.34661 24.9171 9.4675 24.9619 9.60339C25.0067 9.73928 25.0121 9.88476 24.9775 10.0235C24.9429 10.1623 24.8697 10.2887 24.7661 10.3886L19.1969 15.7406L20.4931 23.1924C20.5306 23.3073 20.5401 23.4294 20.5207 23.5486C20.5013 23.6678 20.4536 23.7809 20.3815 23.8785C20.3094 23.9761 20.2149 24.0555 20.1057 24.1102C19.9966 24.165 19.8759 24.1936 19.7534 24.1936H19.7456C19.6219 24.1936 19.4982 24.1646 19.3844 24.1056L12.5006 20.5371L5.61644 24.1056C5.50507 24.1634 5.38108 24.1936 5.25521 24.1936Z" fill="#808080"/>
</svg>
